<svg width="72" height="72" viewBox="0 0 72 72" fill="none" xmlns="http://www.w3.org/2000/svg">
<path d="M36 57.6C28.5 57.6 21.87 53.76 18 48C18.09 42 30 38.7 36 38.7C42 38.7 53.91 42 54 48C52.0167 50.9532 49.3376 53.3735 46.1987 55.0475C43.0598 56.7216 39.5574 57.5982 36 57.6ZM36 15C38.387 15 40.6761 15.9482 42.364 17.636C44.0518 19.3239 45 21.6131 45 24C45 26.3869 44.0518 28.6761 42.364 30.364C40.6761 32.0518 38.387 33 36 33C33.6131 33 31.3239 32.0518 29.636 30.364C27.9482 28.6761 27 26.3869 27 24C27 21.6131 27.9482 19.3239 29.636 17.636C31.3239 15.9482 33.6131 15 36 15ZM36 6C32.0603 6 28.1593 6.77597 24.5195 8.28361C20.8797 9.79126 17.5726 12.001 14.7868 14.7868C9.16071 20.4129 6 28.0435 6 36C6 43.9565 9.16071 51.5871 14.7868 57.2132C17.5726 59.999 20.8797 62.2088 24.5195 63.7164C28.1593 65.224 32.0603 66 36 66C43.9565 66 51.5871 62.8393 57.2132 57.2132C62.8393 51.5871 66 43.9565 66 36C66 19.41 52.5 6 36 6Z" fill="#777777"/>
</svg>
