<svg width="30" height="30" viewBox="0 0 30 30" fill="none" xmlns="http://www.w3.org/2000/svg">
<path d="M5.15625 11.4842H4.45312V5.95763C4.46016 4.50216 4.6875 1.88888 7.16953 1.31701C8.04141 1.11544 8.75391 1.23732 9.33984 1.67794C10.4531 2.51232 10.5328 4.08029 10.5375 4.1506V8.90373H9.84375V4.28185C9.84375 4.28185 9.72187 2.89435 8.8875 2.27326C8.48437 1.97091 7.93828 1.89357 7.29141 2.04357C6.26719 2.28029 5.64844 2.9506 5.33203 4.10138C5.08125 5.01076 5.18906 5.97638 5.15625 5.94123V11.4842Z" fill="#ED6C30"/>
<path d="M2.05542 9.06582L12.2906 6.32129L13.8796 6.84629L15.7382 6.70332L6.60464 9.31426L2.05542 9.06582Z" fill="#ED6C30"/>
<path d="M7.3477 28.329L4.9688 27.4782C4.82817 27.429 4.67583 27.422 4.53286 27.4595L2.74458 27.9282C2.40474 28.0173 2.06958 27.7595 2.06958 27.4079V9.0259L5.57817 8.86887C5.66489 8.86418 5.75161 8.88293 5.8313 8.92278L6.60474 9.31418L7.3477 28.329Z" fill="#FBC21A"/>
<path d="M6.60474 9.31406V27.5836C6.60474 28.0992 7.11333 28.4578 7.59849 28.2867L15.2415 25.5773C15.3868 25.5259 15.5126 25.4306 15.6016 25.3047C15.6906 25.1788 15.7384 25.0284 15.7383 24.8742V6.69141L6.60474 9.31406Z" fill="#F79329"/>
<path d="M8.2031 12.1876H7.49998V7.08992C7.49998 6.94461 7.47185 5.77274 7.76951 4.51648C8.2031 2.69539 9.1992 1.5868 10.6125 1.31258C11.6133 1.11805 12.4312 1.27977 13.0242 1.79773C14.0906 2.72586 14.0156 4.43211 14.0109 4.50477L14.0179 10.7813H13.3594V4.4907C13.3594 4.45789 13.3781 3.03992 12.5859 2.3532C12.1734 1.99695 11.557 1.89148 10.7953 2.03914C8.0742 2.56883 8.20076 7.03133 8.2031 7.0782V12.1876Z" fill="#F79329"/>
<path d="M13.3405 13.4576L9.92334 14.5498C9.84553 14.5723 9.76354 14.5765 9.68386 14.5619C9.60418 14.5473 9.52898 14.5143 9.4642 14.4657C9.39942 14.4171 9.34683 14.354 9.31059 14.2816C9.27435 14.2091 9.25545 14.1293 9.25537 14.0482V13.1646C9.25537 12.9326 9.41006 12.7264 9.63271 12.6631L13.0499 11.5709C13.1277 11.5484 13.2097 11.5443 13.2894 11.5588C13.3691 11.5734 13.4443 11.6064 13.509 11.655C13.5738 11.7036 13.6264 11.7667 13.6626 11.8391C13.6989 11.9116 13.7178 11.9915 13.7179 12.0725V12.9561C13.7179 13.1881 13.5632 13.392 13.3405 13.4576Z" fill="#FBC21A"/>
<path d="M27.2086 28.2679H14.2665C13.6641 28.2679 13.1086 27.8882 13.1086 27.2858V10.8022H28.3594V27.2858C28.3594 27.8882 27.811 28.2679 27.2086 28.2679Z" fill="#BDCF46"/>
<path d="M28.3477 24.1758V27.2812C28.3477 27.8859 27.7993 28.2656 27.1946 28.2656H14.2547C13.6524 28.2656 13.0969 27.8859 13.0969 27.2812V24.1758H28.3477Z" fill="#95AD32"/>
<path d="M13.1086 8.30371H28.3547V10.8021H13.1086V8.30371Z" fill="#454C29"/>
<path d="M14.1892 8.92959L14.7915 9.27881C15.0048 9.40303 15.0048 9.71006 14.7915 9.83428L14.1915 10.1812L13.1087 10.8046L13.1063 9.55537L13.104 8.30615L14.1892 8.92959ZM27.272 8.92959L26.672 9.27647C26.6228 9.30486 26.582 9.34568 26.5536 9.39485C26.5252 9.44401 26.5103 9.49978 26.5103 9.55654C26.5103 9.61331 26.5252 9.66908 26.5536 9.71824C26.582 9.7674 26.6228 9.80823 26.672 9.83662L27.2696 10.1812L28.3524 10.8046L28.3548 9.55537L28.3571 8.30615L27.272 8.92959Z" fill="#757F3F"/>
<path d="M25.2422 8.4001H24.4618V6.22275C24.4618 4.16025 22.7766 2.47978 20.7047 2.47978C18.6329 2.47978 16.9477 4.15791 16.9477 6.22275V8.4001H16.1672V6.22275C16.1672 3.729 18.2016 1.70166 20.7047 1.70166C23.2079 1.70166 25.2422 3.729 25.2422 6.22275V8.4001Z" fill="#454C29"/>
<path d="M6.60229 25.015V24.2416L13.0992 22.0479V22.8143L6.60229 25.015Z" fill="#FBC21A"/>
<path d="M14.2383 10.7998H15.3984V24.1756H14.2383V10.7998ZM18.9539 10.7998H20.1141V24.1756H18.9539V10.7998ZM21.3117 10.7998H22.4719V24.1756H21.3117V10.7998ZM23.6695 10.7998H24.8297V24.1756H23.6695V10.7998ZM16.5961 10.7998H17.7563V24.1756H16.5961V10.7998ZM26.0273 10.7998H27.1875V24.1756H26.0273V10.7998Z" fill="#95AD32"/>
<path d="M25.0288 12.7408H24.2858V8.42832C24.2858 6.46191 22.678 4.86113 20.7046 4.86113C18.7312 4.86113 17.1233 6.46191 17.1233 8.42832V12.7432H16.3804V8.42832C16.3804 6.05176 18.321 4.11816 20.7046 4.11816C23.0882 4.11816 25.0288 6.05176 25.0288 8.42832V12.7408Z" fill="#757F3F"/>
<path d="M16.7086 13.7132C17.0853 13.7132 17.3907 13.4078 17.3907 13.0312C17.3907 12.6545 17.0853 12.3491 16.7086 12.3491C16.332 12.3491 16.0266 12.6545 16.0266 13.0312C16.0266 13.4078 16.332 13.7132 16.7086 13.7132Z" fill="#757F3F"/>
<path d="M24.6375 13.7344C25.0258 13.7344 25.3406 13.4196 25.3406 13.0312C25.3406 12.6429 25.0258 12.3281 24.6375 12.3281C24.2491 12.3281 23.9343 12.6429 23.9343 13.0312C23.9343 13.4196 24.2491 13.7344 24.6375 13.7344Z" fill="#757F3F"/>
</svg>
