<svg width="48" height="38" viewBox="0 0 48 38" fill="none" xmlns="http://www.w3.org/2000/svg">
<g clip-path="url(#clip0_38_119)">
<path d="M38.7167 28.8858C37.8882 30.0549 36.9079 31.1151 35.8 32.0403C32.9938 34.5643 29.4707 36.2097 25.6889 36.7625C23.6189 37.1283 21.4914 37.0477 19.4569 36.5264C18.4456 36.2282 17.4997 35.7511 16.6667 35.1192C13.4247 32.8567 9.49359 31.719 5.50556 31.8892C4.03643 31.8133 2.57309 32.1198 1.26667 32.777C0.858334 32.9942 0.576389 32.8808 0.1875 32.4181V31.8703C1.1748 30.9727 2.2383 30.1576 3.36667 29.4336C5.58333 27.932 7.81944 26.4397 10.0458 24.9475C10.3181 24.6453 10.7069 24.7114 11.0181 24.6642C13.1537 24.47 15.3067 24.5654 17.4153 24.9475C20.4583 25.4481 23.4236 26.2603 26.4181 26.9497C29.0917 27.592 31.7983 28.1001 34.5264 28.4703C35.4986 28.527 36.5389 28.6875 37.5597 28.697C37.9562 28.6271 38.3654 28.6939 38.7167 28.8858Z" fill="#186648"/>
<path d="M38.7165 28.8857L34.7499 28.5929C34.6775 28.5804 34.6082 28.5548 34.5457 28.5173C35.5321 25.5407 36.184 22.4691 36.4901 19.3562C36.8245 16.5985 36.64 13.8048 35.9457 11.1112C35.404 8.78983 33.9625 6.7604 31.9207 5.44455C31.7651 5.35011 31.5707 5.27455 31.5804 5.04788C31.5804 5.04788 31.6485 4.97233 31.6971 4.98177C32.4429 5.01415 33.174 5.19412 33.8457 5.51066C35.0999 5.90261 36.3297 6.3635 37.5304 6.88955C40.6122 8.19771 43.2583 10.3136 45.1721 13.0001C46.7698 15.4178 47.6944 18.1969 47.8554 21.0657C48.0059 22.9555 47.944 24.8556 47.6707 26.7323C47.6765 26.8239 47.6765 26.9146 47.6707 27.0062C47.2235 28.9707 46.4457 29.509 44.3651 29.339C42.4917 29.092 40.6063 28.9407 38.7165 28.8857Z" fill="#186648"/>
<path d="M17.4931 25.013C16.4431 24.9185 15.4126 24.7674 14.3626 24.7013C12.9208 24.6069 11.4721 24.673 10.0459 24.8996C10.1237 23.7002 10.3084 22.5074 10.6001 21.3391C11.0758 19.1214 11.7928 16.959 12.739 14.8885C13.5801 13.0281 14.7989 11.3516 16.3224 9.95928C17.8459 8.56695 19.6428 7.4874 21.6056 6.7852C23.9596 5.92112 26.4158 5.34683 28.9167 5.07576C29.3932 4.86135 29.9244 4.78904 30.4431 4.86798C30.5501 4.86798 30.6862 4.86798 30.7056 5.01909C30.7251 5.1702 30.5695 5.17964 30.4723 5.20798C29.957 5.38742 29.4223 5.51964 28.8973 5.70853C26.3368 6.71113 24.1383 8.42625 22.5778 10.6385C20.5274 13.5345 19.0959 16.8006 18.3681 20.2435C18.013 21.7185 17.7532 23.2137 17.5903 24.7202C17.5987 24.8264 17.5638 24.9315 17.4931 25.013Z" fill="#B1CC33"/>
<path d="M30.5403 4.98197L28.9362 5.07642C28.9127 4.63449 29.015 4.19482 29.2319 3.80568C29.4487 3.41653 29.7718 3.09296 30.1656 2.87047C30.5593 2.64799 31.0086 2.53519 31.464 2.54448C31.9195 2.55376 32.3634 2.68475 32.7473 2.92308C33.149 3.09292 33.48 3.3896 33.6864 3.76501C33.8929 4.14043 33.9628 4.57259 33.8848 4.99142V5.44475C33.1264 5.33142 32.3973 5.05753 31.6292 5.00086C31.2403 5.17086 30.8612 4.90642 30.5403 4.98197Z" fill="#3F3F3F"/>
<path d="M30.5402 4.98141C30.8779 4.85385 31.2525 4.85385 31.5902 4.98141C32.475 5.13441 33.6922 5.54996 34.2415 6.0033C35.7231 7.45585 35.8165 9.53174 36.2374 11.5359C36.545 12.8278 36.708 14.1482 36.7236 15.4742C36.7683 17.0514 36.7002 18.6286 36.5194 20.1964C36.193 22.6727 35.6796 25.1222 34.9833 27.5253C34.8861 27.8653 34.9152 28.2903 34.5361 28.4697C32.8815 28.3005 31.2387 28.0356 29.6166 27.6764C26.418 27.0436 23.268 26.2031 20.0888 25.4853C19.2333 25.2964 18.368 25.1359 17.5125 24.9659C17.6048 23.5114 17.8294 22.0664 18.1833 20.6497C18.7384 17.9419 19.6877 15.3247 21.0027 12.877C22.3072 10.3399 24.2753 8.18055 26.7097 6.6153C27.9094 5.88607 29.2226 5.35025 30.5986 5.02863H30.6763L30.5402 4.98141Z" fill="#5C9E31"/>
<path d="M9.80281 24.1254L0.245862 31.8131C0.187529 32.7576 1.29586 32.6348 2.19031 32.3231C3.08475 32.0115 10.1723 30.3776 18.2223 36.0159C26.2723 41.6542 40.5532 28.9694 38.637 28.3064M47.3889 26.4487C48.7597 21.7265 50.4222 9.77925 33.9236 4.72647C33.9236 4.72647 34.1861 2.15758 31.707 1.9498C29.2278 1.74202 28.8584 4.46202 28.8584 4.46202C9.58892 5.44425 9.95836 24.0687 9.95836 24.0687C12.4345 23.7429 14.9496 23.8292 17.3959 24.3237C19.7681 24.8054 24.6292 25.967 29.432 26.8359C31.2889 27.1759 33.1556 27.4404 34.8278 27.667C34.8278 27.667 36.9959 27.939 38.5709 28.1676C40.1459 28.3961 43.1199 28.8381 44.4042 28.8381C45.6885 28.8381 47.0253 27.7851 47.3889 26.4487Z" stroke="black" stroke-width="2" stroke-linecap="round" stroke-linejoin="round"/>
<path d="M17.3958 24.3333C18.893 14.955 22.4221 9.79834 25.1735 7.10667C26.9721 5.33112 27.9444 4.38667 32.6013 4.98167L32.6606 4.99112C34.081 5.22534 35.1806 6.31334 35.5958 7.65445C36.3541 10.1034 38.2645 17.4946 34.9308 27.3943" stroke="black" stroke-width="2" stroke-linecap="round" stroke-linejoin="round"/>
</g>
<defs>
<clipPath id="clip0_38_119">
<rect width="48" height="37" fill="white" transform="translate(0 0.5)"/>
</clipPath>
</defs>
</svg>
